HIERARCHY
ROOT Hips
{
    OFFSET 0.000000 0.000000 0.000000
    CHANNELS 6 Xposition Yposition Zposition Zrotation Xrotation Yrotation
    JOINT Spine
    {
        OFFSET -0.000000 14.517291 0.000000
        CHANNELS 3 Zrotation Xrotation Yrotation
        JOINT Spine1
        {
            OFFSET -0.000000 37.558300 0.000000
            CHANNELS 3 Zrotation Xrotation Yrotation
            JOINT Neck
            {
                OFFSET -0.000000 37.404057 3.400369
                CHANNELS 3 Zrotation Xrotation Yrotation
                JOINT Head
                {
                    OFFSET -0.000000 24.785618 -3.540803
                    CHANNELS 3 Zrotation Xrotation Yrotation
                    End Site
                    {
                        OFFSET -0.000000 35.408028 0.000000
                    }
                }
            }
            JOINT LeftShoulder
            {
                OFFSET 6.992933 33.973492 -0.192664
                CHANNELS 3 Zrotation Xrotation Yrotation
                JOINT LeftArm
                {
                    OFFSET 21.527611 0.000000 0.000000
                    CHANNELS 3 Zrotation Xrotation Yrotation
                    JOINT LeftForeArm
                    {
                        OFFSET 56.353916 0.000000 0.000000
                        CHANNELS 3 Zrotation Xrotation Yrotation
                        JOINT LeftHand
                        {
                            OFFSET 47.774071 0.000000 0.000000
                            CHANNELS 3 Zrotation Xrotation Yrotation
                            End Site
                            {
                                OFFSET 26.556021 0.000000 0.000000
                            }
                        }
                    }
                }
            }
            JOINT RightShoulder
            {
                OFFSET -7.065357 33.973492 -0.192664
                CHANNELS 3 Zrotation Xrotation Yrotation
                JOINT RightArm
                {
                    OFFSET -21.527611 0.000000 0.000000
                    CHANNELS 3 Zrotation Xrotation Yrotation
                    JOINT RightForeArm
                    {
                        OFFSET -56.353916 0.000000 0.000000
                        CHANNELS 3 Zrotation Xrotation Yrotation
                        JOINT RightHand
                        {
                            OFFSET -47.774071 0.000000 0.000000
                            CHANNELS 3 Zrotation Xrotation Yrotation
                            End Site
                            {
                                OFFSET -26.556021 0.000000 0.000000
                            }
                        }
                    }
                }
            }
        }
    }
    JOINT LeftUpLeg
    {
        OFFSET 17.704014 0.000000 0.000000
        CHANNELS 3 Zrotation Xrotation Yrotation
        JOINT LeftLeg
        {
            OFFSET -0.000000 -81.181816 0.000000
            CHANNELS 3 Zrotation Xrotation Yrotation
            JOINT LeftFoot
            {
                OFFSET -0.000000 -62.821102 0.000000
                CHANNELS 3 Zrotation Xrotation Yrotation
                JOINT LeftToeBase
                {
                    OFFSET -0.000000 -11.507608 26.556021
                    CHANNELS 3 Zrotation Xrotation Yrotation
                    End Site
                    {
                        OFFSET -0.000000 0.000000 7.081605
                    }
                }
            }
        }
    }
    JOINT RightUpLeg
    {
        OFFSET -17.704014 0.000000 0.000000
        CHANNELS 3 Zrotation Xrotation Yrotation
        JOINT RightLeg
        {
            OFFSET -0.000000 -81.181816 0.000000
            CHANNELS 3 Zrotation Xrotation Yrotation
            JOINT RightFoot
            {
                OFFSET -0.000000 -62.821102 0.000000
                CHANNELS 3 Zrotation Xrotation Yrotation
                JOINT RightToeBase
                {
                    OFFSET -0.000000 -11.507608 26.556021
                    CHANNELS 3 Zrotation Xrotation Yrotation
                    End Site
                    {
                        OFFSET -0.000000 0.000000 7.081605
                    }
                }
            }
        }
    }
}
MOTION
Frames:    9
Frame Time:    0.008333
-20.738289    163.659088    -77.575363    -8.502628    -22.253784    43.386425    3.369013    5.931046    -3.707719    6.168617    5.687803    -1.486762    15.965634    2.744863    -5.318296    4.643516    -3.858538    -6.717606    21.356384    -6.642186    -20.538265    1.110324    -9.745190    -26.867191    -15.878651    2.088270    -99.515404    -13.098494    -12.833338    -34.017635    11.502160    8.926303    -9.110456    32.376987    14.901957    14.899337    -12.325814    5.350234    35.389347    -23.797274    2.169533    32.894344    25.064695    -0.401523    5.903633    -5.059200    37.482571    -16.872051    8.318181    -22.184086    34.972176    0.000000    0.000000    0.000000    -89.340172    -44.325005    -54.806946    9.262160    17.176809    -8.642605    19.382645    11.803522    -34.457020    0.000000    0.000000    0.000000    
-20.767031    163.673218    -77.600571    -8.537498    -22.270309    43.380966    3.368514    5.930247    -3.714432    6.177670    5.692243    -1.489746    16.008429    2.737055    -5.310637    4.614134    -3.864376    -6.721080    21.384068    -6.663104    -20.537790    1.099323    -9.799575    -26.889868    -15.876492    2.101532    -99.440208    -13.069116    -12.794791    -34.073380    11.528435    8.944970    -9.111181    32.355961    14.871087    14.910614    -12.311603    5.355968    35.393200    -23.785570    2.170811    32.911751    25.104273    -0.435365    5.920677    -5.049397    37.491436    -16.868402    8.282554    -22.179411    34.954185    0.000000    0.000000    0.000000    -89.312187    -44.330875    -54.807434    9.267294    17.181400    -8.658553    19.331011    11.889381    -34.498917    0.000000    0.000000    0.000000    
-20.791510    163.683746    -77.619308    -8.571470    -22.292917    43.376167    3.372364    5.926551    -3.724649    6.186068    5.699928    -1.493954    16.054005    2.742132    -5.307224    4.573143    -3.879264    -6.729148    21.404568    -6.673686    -20.521648    1.087621    -9.831384    -26.933184    -15.848478    2.097515    -99.360954    -13.022540    -12.751267    -34.084553    11.541414    8.951543    -9.108382    32.349979    14.836456    14.917373    -12.286505    5.375209    35.398949    -23.774118    2.183039    32.925724    25.148663    -0.465275    5.923038    -5.035271    37.510338    -16.932301    8.250075    -22.186657    35.000729    0.000000    0.000000    0.000000    -89.287331    -44.334866    -54.818848    9.277731    17.200775    -8.690500    19.280369    11.967766    -34.527485    0.000000    0.000000    0.000000    
-20.818127    163.697189    -77.632942    -8.601135    -22.329653    43.366241    3.370046    5.939051    -3.729510    6.210550    5.695297    -1.496533    16.104988    2.758885    -5.302247    4.517451    -3.885596    -6.737502    21.413115    -6.668805    -20.517557    1.078518    -9.847505    -26.974609    -15.805070    2.067167    -99.271133    -13.020036    -12.693982    -34.128872    11.547357    8.971908    -9.083763    32.351784    14.830024    14.900141    -12.303122    5.360389    35.399590    -23.745165    2.178125    32.945034    25.198717    -0.476398    5.906619    -5.032670    37.522705    -16.988127    8.217248    -22.194555    35.064957    0.000000    0.000000    0.000000    -89.238197    -44.344364    -54.850277    9.277470    17.217960    -8.694896    19.238251    12.033690    -34.537453    0.000000    0.000000    0.000000    
-20.844437    163.707916    -77.643578    -8.633018    -22.361296    43.358181    3.366308    5.947574    -3.733570    6.239138    5.685807    -1.498844    16.104544    2.795545    -5.310518    4.540900    -3.915764    -6.735465    21.404390    -6.653621    -20.510412    1.072734    -9.881957    -27.030903    -15.789502    2.080846    -99.175400    -12.988416    -12.636858    -34.154697    11.548216    8.978099    -9.080053    32.349903    14.874006    14.892733    -12.335214    5.313920    35.400558    -23.738207    2.142237    32.953423    25.245613    -0.495270    5.900924    -5.021948    37.538162    -17.033312    8.184568    -22.201010    35.116917    0.000000    0.000000    0.000000    -89.205711    -44.348106    -54.937500    9.275043    17.245825    -8.644387    19.194323    12.113764    -34.552608    0.000000    0.000000    0.000000    
-20.870110    163.715439    -77.650742    -8.660783    -22.394493    43.354092    3.353732    5.949221    -3.732002    6.268791    5.691803    -1.500310    16.115858    2.794655    -5.319697    4.553629    -3.896585    -6.745102    21.413397    -6.660054    -20.517101    1.043166    -9.904887    -27.081160    -15.793559    2.106399    -99.076324    -12.975580    -12.584289    -34.186787    11.559252    8.981264    -9.073738    32.343121    14.913306    14.879806    -12.369592    5.269031    35.386501    -23.722544    2.105977    32.977375    25.288177    -0.509753    5.870446    -5.021374    37.548630    -17.069130    8.155205    -22.215799    35.186089    0.000000    0.000000    0.000000    -89.153610    -44.342754    -54.786564    9.330898    17.206995    -8.853207    19.139427    12.201552    -34.513073    0.000000    0.000000    0.000000    
-20.895273    163.728714    -77.653862    -8.688163    -22.440159    43.345345    3.349313    5.959505    -3.723881    6.297204    5.695249    -1.499193    16.126654    2.809399    -5.320364    4.569764    -3.905523    -6.741832    21.410278    -6.655054    -20.524694    1.021080    -9.906201    -27.143427    -15.791224    2.100959    -98.981438    -12.976677    -12.554185    -34.194302    11.566152    8.986619    -9.066662    32.340202    14.905275    14.865949    -12.358137    5.258155    35.382885    -23.729042    2.084966    32.994549    25.337616    -0.514471    5.860734    -5.003797    37.564121    -17.088991    8.125683    -22.219254    35.219246    0.000000    0.000000    0.000000    -89.090332    -44.339027    -54.806923    9.346062    17.206842    -8.852564    19.098951    12.254153    -34.495781    0.000000    0.000000    0.000000    
-20.916071    163.737808    -77.650284    -8.702908    -22.486025    43.350159    3.327909    5.967614    -3.722219    6.335553    5.710942    -1.501755    16.139284    2.809557    -5.323262    4.583837    -3.893421    -6.744444    21.409542    -6.637937    -20.534611    0.990358    -9.900029    -27.205408    -15.780724    2.069112    -98.897255    -12.995975    -12.538523    -34.198734    11.570694    8.977652    -9.050427    32.344433    14.928716    14.830886    -12.377119    5.224196    35.379776    -23.720402    2.055037    33.013268    25.381655    -0.506563    5.819064    -4.999618    37.567520    -17.107656    8.091939    -22.237200    35.253891    0.000000    0.000000    0.000000    -89.074501    -44.352119    -55.295776    9.223053    17.355688    -8.474555    19.034136    12.316610    -34.426849    0.000000    0.000000    0.000000    
-20.939631    163.744720    -77.648560    -8.727614    -22.521126    43.341820    3.311334    5.969267    -3.711587    6.360330    5.714360    -1.499919    16.160860    2.807281    -5.323629    4.595320    -3.869163    -6.746855    21.412289    -6.616990    -20.549997    0.957124    -9.873590    -27.262964    -15.754507    2.012260    -98.827675    -13.015949    -12.535172    -34.190693    11.584363    8.970417    -9.047176    32.341686    14.942165    14.809520    -12.378575    5.208518    35.370388    -23.694485    2.043406    33.027622    25.422251    -0.509636    5.802504    -4.988855    37.575508    -17.152891    8.062277    -22.255651    35.328270    0.000000    0.000000    0.000000    -89.030243    -44.353561    -55.336922    9.225347    17.367973    -8.495708    19.015110    12.329935    -34.391438    0.000000    0.000000    0.000000    
